<?xml version="1.0" encoding="UTF-8"?>
<svg width="24px" height="22px" viewBox="0 0 24 22" version="1.1" xmlns="http://www.w3.org/2000/svg" xmlns:xlink="http://www.w3.org/1999/xlink">
    <!-- Generator: Sketch 53.2 (72643) - https://sketchapp.com -->
    <title>消息-选中</title>
    <desc>Created with Sketch.</desc>
    <g id="Page-1" stroke="none" stroke-width="1" fill="none" fill-rule="evenodd">
        <path d="M4.19128554,19.3526988 C1.62552607,17.3352793 0,14.3416514 0,11 C0,4.92486775 5.372583,0 12,0 C18.627417,0 24,4.92486775 24,11 C24,17.0751322 18.627417,22 12,22 L3,22 L4.19128554,19.3526988 Z M6.20689655,12.4827586 C5.40703588,12.4827586 4.75862069,11.8343434 4.75862069,11.0344828 C4.75862069,10.2346221 5.40703588,9.5862069 6.20689655,9.5862069 C7.00675722,9.5862069 7.65517241,10.2346221 7.65517241,11.0344828 C7.65517241,11.8343434 7.00675722,12.4827586 6.20689655,12.4827586 Z M12,12.4827586 C11.2001393,12.4827586 10.5517241,11.8343434 10.5517241,11.0344828 C10.5517241,10.2346221 11.2001393,9.5862069 12,9.5862069 C12.7998607,9.5862069 13.4482759,10.2346221 13.4482759,11.0344828 C13.4482759,11.8343434 12.7998607,12.4827586 12,12.4827586 Z M17.7931034,12.4827586 C16.9932428,12.4827586 16.3448276,11.8343434 16.3448276,11.0344828 C16.3448276,10.2346221 16.9932428,9.5862069 17.7931034,9.5862069 C18.5929641,9.5862069 19.2413793,10.2346221 19.2413793,11.0344828 C19.2413793,11.8343434 18.5929641,12.4827586 17.7931034,12.4827586 Z" id="消息-选中" fill="#33C8DF"></path>
    </g>
</svg>