<?xml version="1.0" standalone="no"?>
<!DOCTYPE svg PUBLIC "-//W3C//DTD SVG 1.1//EN" "http://www.w3.org/Graphics/SVG/1.1/DTD/svg11.dtd" >
<!--
2013-9-30: Created.
-->
<svg>
<metadata>
Created by iconfont
</metadata>
<defs>

<font id="iconfont" horiz-adv-x="1024" >
  <font-face
    font-family="iconfont"
    font-weight="500"
    font-stretch="normal"
    units-per-em="1024"
    ascent="896"
    descent="-128"
  />
    <missing-glyph />
    
    <glyph glyph-name="fasongwenjian" unicode="&#58942;" d="M187.55999756 523.04571533h648.88000488v23.17428589a46.34857177 46.34857177 0 0 1-46.34857177 46.34857178H465.65142823V708.44000244H187.55999756v-185.39428711z m0-46.34857178v-370.78857421a46.34857177 46.34857177 0 0 1 46.34857177-46.34857178h556.18286133a46.34857177 46.34857177 0 0 1 46.34857178 46.34857177V476.69714356H187.55999756z m324.44000244 162.22000122h278.09143067a92.69714356 92.69714356 0 0 0 92.69714355-92.69714355V105.90856932999998a92.69714356 92.69714356 0 0 0-92.69714356-92.69714355H233.90856933a92.69714356 92.69714356 0 0 0-92.69714355 92.69714356V708.44000244a46.34857177 46.34857177 0 0 0 46.34857178 46.34857178h278.09143067a46.34857177 46.34857177 0 0 0 46.34857177-46.34857178v-69.52285767z"  horiz-adv-x="1024" />

    
    <glyph glyph-name="kuaijiehuifu" unicode="&#58943;" d="M512 731.55249023a346.66259766 346.66259766 0 0 1-245.61035156-101.4477539A348.046875 348.046875 0 0 1 164.34863281 384.34606934c0-89.58251953 34.35974122-174.76501465 96.75109864-239.87548829 14.83154297-15.42480469 17.64953614-38.75976563 6.92138672-57.24975584-9.14611817-16.01806641-18.19335938-31.640625-26.54846192-46.17553712l-2.22473145-3.85620117 278.58581543 0.34606933c190.68420411 2.42248535 343.54797364 158.84582521 341.91650391 349.92553712C858.16821289 578.54040528 702.68420411 732.34350586 512 731.55249023zM512 779.5078125c218.3203125 0 395.40893555-176.89086914 395.40893555-395.11230469 0-216.04614258-173.72680663-391.45385742-389.1796875-394.81567383l-283.33190919-0.34606934a7197.99499511 7197.99499511 0 0 1-45.97778319-0.74157714h-0.39550781a19.77539063 19.77539063 0 0 0-16.90795899 30.10803223c8.50341797 13.94165039 13.84277344 22.1484375 15.8203125 24.62036133l39.15527344 67.97790527A393.53027344 393.53027344 0 0 0 116.4921875 384.34606934C116.4921875 602.61694336 293.58081055 779.5078125 512 779.5078125z m154.39636231-287.18811036a30.89904786 30.89904786 0 0 0-1e-8-61.89697264H357.50476074a30.89904786 30.89904786 0 0 0 1e-8 61.89697265h308.89160155z m1.58203124-154.74243163a30.89904786 30.89904786 0 0 0 0-61.89697266H355.97216797a30.89904786 30.89904786 0 0 0 0 61.89697265h311.95678711z"  horiz-adv-x="1024" />

    
    <glyph glyph-name="fanhui" unicode="&#58944;" d="M671.83789088 591.61523463H228.55273463l131.83593699 131.83593699a31.85156275 31.85156275 0 0 1 0 46.14257863 31.85156275 31.85156275 0 0 1-46.14257787 0L126.35351588 583.49414063A32.53710912 32.53710912 0 0 1 116.4921875 560.29101588c0-8.27929713 3.269531-16.50585963 9.91406225-23.09765625l186.15234425-186.20507813c13.183594-13.183594 33.0117185-13.183594 46.1953125 0a31.85156275 31.85156275 0 0 1 0 46.14257787L230.18749975 525.75h441.65039113a221.53710963 221.53710963 0 0 0 222.48632762-222.53906225 221.53710963 221.53710963 0 0 0-222.48632762-222.43359375H334.02148437a33.06445313 33.06445313 0 0 1-32.95898462-32.95898463c0-18.14062475 14.81835912-32.95898463 32.95898463-32.95898462h337.8164065A287.66601588 287.66601588 0 0 1 960.24218775 303.26367161999997a287.66601588 287.66601588 0 0 1-288.40429687 288.40429688z"  horiz-adv-x="1092" />

    
    <glyph glyph-name="biaoqing" unicode="&#58945;" d="M512 31.075195060000055A352.92480494 352.92480494 0 1 1 512 736.88085954 352.92480494 352.92480494 0 0 1 512 31.11914046000004zM512-11.5078125A395.5078125 395.5078125 0 1 0 512 779.5078125a395.5078125 395.5078125 0 0 0 0-791.015625zM366.453125 446.84179679a41.0888671 41.0888671 0 1 1 0 82.17773421 41.0888671 41.0888671 0 0 1 0-82.17773421z m291.09375 0a41.0888671 41.0888671 0 1 1 0 82.17773421 41.0888671 41.0888671 0 0 1 0-82.17773421zM324.35351528 300.89941397999996c0 11.73339818 9.5361329 21.26953107 21.26953185 21.26953108h332.66601572c11.73339818 0 21.26953107-9.5361329 21.26953107-21.26953108a187.64648472 187.64648472 0 1 0-375.20507864 0zM512 155.83593757999995a145.06347638 145.06347638 0 0 1 143.48144514 123.70605452h-286.96289028A145.06347638 145.06347638 0 0 1 512 155.79199218999997z"  horiz-adv-x="1024" />

    
    <glyph glyph-name="sousuo-guanbi" unicode="&#58946;" d="M512-128A512 512 0 1 0 512 896a512 512 0 0 0 0-1024z m223.317333 257.024a31.658667 31.658667 0 0 1 22.357334 54.016L556.544 383.829333l201.045333 201.130667a31.573333 31.573333 0 1 1-44.629333 44.629333L512.256 428.544 311.04 629.589333a31.658667 31.658667 0 0 1-44.714667-44.714666l201.130667-200.789334-201.045333-201.045333a31.573333 31.573333 0 1 1 44.629333-44.714667l200.704 201.130667 201.216-201.130667c5.973333-5.973333 13.994667-9.301333 22.357333-9.301333z"  horiz-adv-x="1024" />

    
    <glyph glyph-name="qiyezhanghao" unicode="&#58947;" d="M512-128A512 512 0 1 0 512 896a512 512 0 0 0 0-1024z m300.032 312.32h-40.064V440.96a49.92 49.92 0 0 1-35.968 46.72l-148.544 26.24c-6.016 1.792-12.032 0-18.048-1.792-3.968-3.584-8-8.96-8-14.4v-313.408h-29.44V615.488c0 14.4-5.952 25.152-17.92 34.176-14.08 8.96-32 10.752-50.048 7.168l-169.984-43.136c-24-5.376-42.048-26.88-42.048-50.304v-380.864h-39.936c-12.032 0-20.032-7.232-20.032-17.984 0-10.816 8-17.92 20.032-17.92h599.936c12.032 0 20.032 7.104 20.032 17.92a19.392 19.392 0 0 1-20.032 19.776z m-164.032 161.664h40c11.968 0 19.968-7.168 19.968-17.92 0-10.816-8-17.984-19.968-17.984h-40c-12.032 0-20.032 7.168-20.032 17.92 0 10.88 8 17.984 20.032 17.984zM352 489.728h80c12.032 0 20.032-7.168 20.032-17.92 0-10.816-8-17.984-20.032-17.984H352c-12.032 0-20.032 7.168-20.032 17.92 0 10.816 8 17.984 20.032 17.984z m0-143.744h80c12.032 0 20.032-7.168 20.032-17.92 0-10.816-8-17.984-20.032-17.984H352c-12.032 0-20.032 7.168-20.032 17.92 0 10.88 8 17.984 20.032 17.984z"  horiz-adv-x="1024" />

    
    <glyph glyph-name="fasongtupian" unicode="&#58948;" d="M187.26399739 683.94323731v-449.24743653l3.95507813 5.289917c50.03173828 66.04980469 99.5690918 114.30175781 137.83447265 121.71752929 42.07214356 4.79553223 83.55102539-4.59777833 151.13342286-32.43164062 74.05883789-30.45410156 78.35998536-31.78894043 99.42077636-33.17321778 38.31481934-0.09887695 61.64978028 15.57312012 124.78271485 90.02746583 22.19787598 26.20239258 27.58666992 32.33276367 37.27661132 42.61596678 28.37768555 30.05859375 49.43847656 45.9777832 74.65209961 45.97778321 42.02270508 0 101.94213867-29.1192627 158.35144044-72.67456054L978.27962239 399.32592773V683.94323731C978.27962239 709.40405273 956.13118489 730.06933594 928.84114583 730.06933594H236.70247395c-27.29003906 0-49.43847656-20.6652832-49.43847656-46.12609864z m0-531.21643067v-68.67004395c0-25.46081543 22.1484375-46.12609864 49.43847656-46.12609863h692.13867188c27.29003906 0 49.43847656 20.6652832 49.43847656 46.12609864V336.83569336000005l-33.86535645 26.10351562c-48.69689942 37.62268067-99.91516114 62.34191895-128.04565428 62.34191895-4.94384766 0-18.53942872-9.09667969-38.71032716-30.45410157a900.76904297 900.76904297 0 0 1-35.59570312-40.6878662c-69.85656739-82.41394043-104.66125489-107.62756348-162.55371094-107.47924805-31.24511719 1.97753906-39.55078125 4.59777833-118.15795898 36.88110352-61.05651856 25.16418458-94.97131348 32.62939453-126.66137696 29.02038573-16.61132813-3.26293945-60.31494141-44.69238281-104.01855469-102.43652343L187.26399739 152.77624511zM1027.71809896 686.46459961v-604.92919922c0-51.41601563-44.24743653-93.04321289-98.87695313-93.04321289H236.70247395c-54.62951661 0-98.87695313 41.67663575-98.87695312 93.04321289V691.75451661C137.82552083 740.45141602 177.3268636 779.5078125 226.32039388 779.5078125h712.90283203C988.16731771 779.5078125 1027.71809896 740.30310059 1027.71809896 691.75451661v-5.289917zM434.4563802 482.87695313c11.71691895 0 24.96643067 5.24047852 34.40917969 12.8540039C477.96223958 504.72875977 483.89485677 519.46142578 483.89485677 532.31542969c0 12.75512695-5.93261719 27.58666992-10.62927247 32.62939453C459.42281086 576.36511231 446.2721761 581.75390625 434.4563802 581.75390625a49.38903809 49.38903809 0 0 1-35.54626465-13.89221192C390.95052083 559.90209961 385.01790364 545.11999512 385.01790364 532.31542969c0-12.75512695 5.93261719-27.58666992 13.89221192-35.54626466 8.89892578-8.89892578 21.25854492-13.89221192 35.54626465-13.89221191z m1e-8-49.43847657a98.7286377 98.7286377 0 0 0-70.49926758 28.37768555C346.40645344 479.36682129 335.57942708 506.95349122 335.57942708 532.31542969c0 25.41137695 10.82702637 52.89916992 28.37768555 70.49926758A98.7286377 98.7286377 0 0 0 434.4563802 631.19238281c24.22485352 0 48.35083008-9.88769531 70.49926758-28.37768554C522.50630696 585.26403809 533.33333333 557.67736817 533.33333333 532.31542969c0-25.41137695-10.82702637-52.89916992-29.61364747-71.63635255C482.80721028 443.32617188 458.68123372 433.43847656 434.4563802 433.43847656z"  horiz-adv-x="1152" />

    
    <glyph glyph-name="sousuo" unicode="&#58949;" d="M849.59140946 86.61597633999997L655.68057273 280.81649185000003a275.1946447 275.1946447 0 0 1 61.99121431 174.15475846A276.93271614 276.93271614 0 0 1 441.02874969 731.61428833 276.93271614 276.93271614 0 0 1 164.38571167 454.97125031a276.93271614 276.93271614 0 0 1 276.64303802-276.58510186A275.1946447 275.1946447 0 0 1 615.12557198 240.31942727l193.96877289-194.20051553a28.50437165 28.50437165 0 0 1 40.4391291 0 28.6202433 28.6202433 0 0 1 0 40.4391291zM221.5682621 454.97125031A219.57635858 219.57635858 0 0 0 441.08668518 674.37380241 219.57635858 219.57635858 0 0 0 660.31542947 454.97125031 219.57635858 219.57635858 0 0 0 441.02874969 235.68457052999997 219.57635858 219.57635858 0 0 0 221.62619759 454.97125031z"  horiz-adv-x="1024" />

    
    <glyph glyph-name="zixunzhong" unicode="&#58951;" d="M737.908907 467.626667c38.570667 0 69.546667-29.952 69.546666-67.584 0-37.546667-30.805333-67.754667-69.546666-67.754667a68.266667 68.266667 0 0 0-69.546667 67.754667c0 37.546667 31.061333 67.669333 69.546667 67.669333z m-222.378667 0c38.570667 0 69.546667-29.952 69.546667-67.584 0-37.546667-30.805333-67.754667-69.546667-67.754667a68.352 68.352 0 0 0-69.461333 67.754667 68.266667 68.266667 0 0 0 69.461333 67.669333z m-222.464 0c38.485333 0 69.461333-29.952 69.461333-67.584 0-37.546667-30.805333-67.754667-69.461333-67.754667a68.266667 68.266667 0 0 0-69.546667 67.754667 68.437333 68.437333 0 0 0 69.546667 67.669333zM55.924907-128a56.064 56.064 0 0 0-32.256 10.24 53.589333 53.589333 0 0 0-13.312 75.776c24.576 34.133333 40.704 76.544 55.466666 113.493333 16.896 43.690667 15.445333 67.584-3.413333 106.496a839.936 839.936 0 0 0-30.293333 70.314667 467.114667 467.114667 0 0 0-26.624 151.722667C5.492907 673.962667 234.271573 896 514.932907 896 795.59424 896 1024.20224 673.365333 1024.20224 400.042667c0-108.629333-37.12-215.893333-105.216-301.909334a513.450667 513.450667 0 0 0-230.229333-165.290666c-48.384-17.066667-103.253333-25.941333-172.544-28.672-16.981333-0.597333-33.109333-0.597333-49.834667-0.597334-77.824 0.597333-138.922667-2.730667-198.570667-11.008-39.936-5.461333-80.042667-8.789333-119.296-12.373333a1495.893333 1495.893333 0 0 1-52.053333-4.693333c-1.962667 0-5.632-0.597333-11.264-0.597334H73.93024a67.328 67.328 0 0 0-17.92-2.901333zM515.615573 788.053333c-219.562667 0-398.506667-174.250667-398.506666-388.010666 0-37.546667 6.997333-77.141333 20.992-116.906667 6.229333-18.944 14.677333-37.461333 25.173333-58.624 33.024-66.304 35.072-120.32 7.68-191.317333-4.864-13.738667-10.496-28.672-17.493333-43.776 33.621333 2.730667 67.328 6.058667 100.352 10.922666 65.28 8.874667 130.474667 12.373333 214.698666 11.605334 14.677333 0 30.208 0 45.568 0.597333 56.832 2.048 100.352 8.874667 137.472 21.845333a401.92 401.92 0 0 1 179.626667 129.109334 379.818667 379.818667 0 0 1 82.090667 236.373333c0.853333 214.016-178.090667 388.181333-397.653334 388.181333z"  horiz-adv-x="1024" />

    
    <glyph glyph-name="jieshuzixun" unicode="&#58952;" d="M512 758.99999991a374.99999991 374.99999991 0 1 1 0-749.99999982A374.99999991 374.99999991 0 0 1 512 758.99999991z m0 46.87500009a421.875 421.875 0 1 0 0-843.75A421.875 421.875 0 0 0 512 805.875zM378.87500037 591.70312527a23.43749963 23.43749963 0 1 0 23.71874936-40.40625064C339.96875018 514.50000027 301.0625 448.92187491 301.0625 376.92187519000004 301.0625 264.56249991000004 395.32812537 173.0625 512 173.0625s210.9375 91.40624973 210.9375 203.90625027c0 71.24999991-38.10937527 136.21874991-99.70312527 173.24999972a23.43749963 23.43749963 0 0 0 24.14062518 40.1718752c75.46874991-45.37499963 122.43750018-125.43750027 122.43750018-213.42187492 0-138.65624973-115.59375001-250.78125037-257.81250009-250.78125036s-257.81250009 112.12499982-257.81250009 250.78125036c0 88.87499973 47.95312473 169.68750019 124.68750046 214.734375z m104.9999999 38.06249936c0 9.60937482 2.71875037 17.90625037 8.20312455 24.9375001 5.43749991 7.03124973 12.00000037 10.546875 19.68750055 10.546875 7.96874991 0 14.71874991-3.51562527 20.15624982-10.546875 5.484375-7.03124973 8.20312537-15.32812527 8.20312454-24.9375001v-210.79687472c0-9.65624991-2.71875037-17.85937527-8.20312455-24.70312464a24.890625 24.890625 0 0 0-20.15624981-10.26562527 24.51562509 24.51562509 0 0 0-19.68750056 10.26562527 38.34374991 38.34374991 0 0 0-8.20312454 24.70312464V629.76562463z"  horiz-adv-x="1024" />

    
    <glyph glyph-name="biaoqing-xuanzhong" unicode="&#58953;" d="M512-80.626526A473.734737 473.734737 0 1 0 512 866.735158a473.734737 473.734737 0 0 0 0-947.361684zM327.787789 499.604211a52.008421 52.008421 0 1 1 0 104.016842 52.008421 52.008421 0 0 1 0-104.016842z m368.424422 0a52.008421 52.008421 0 1 1 0 104.016842 52.008421 52.008421 0 0 1 0-104.016842z m-394.725053-211.806316a210.512842 210.512842 0 1 1 421.025684 0H301.487158z"  horiz-adv-x="1024" />

    
    <glyph glyph-name="fasongtupian-xuanzhong" unicode="&#58954;" d="M128 896h896c70.72 0 128-53.952 128-120.448v-783.104c0-66.56-57.28-120.448-128-120.448H128c-70.72 0-128 53.952-128 120.448V775.552C0 842.112 57.28 896 128 896z m960-113.6A49.92 49.92 0 0 1 1037.44 832H114.56c-28.224 0-50.56-22.144-50.56-49.6v-591.68l5.12 6.848c64.768 85.504 128.896 147.968 178.432 157.568 54.464 6.208 108.16-5.952 195.648-41.984 95.872-39.424 101.44-41.152 128.704-42.944 49.6-0.128 79.808 20.16 161.536 116.544 28.736 33.92 35.712 41.856 48.256 55.168 36.736 38.912 64 59.52 96.64 59.52 54.4 0 131.968-37.696 204.992-94.08L1088 403.84V782.4zM384 448a127.808 127.808 0 0 0-91.264 36.736C270.016 507.456 256 543.168 256 576c0 32.896 14.016 68.48 36.736 91.264A127.808 127.808 0 0 0 384 704c31.36 0 62.592-12.8 91.264-36.736C497.984 644.544 512 608.832 512 576c0-32.896-14.016-68.48-38.336-92.736C446.592 460.8 415.36 448 384 448z"  horiz-adv-x="1152" />

    
    <glyph glyph-name="wentifenlei" unicode="&#58955;" d="M128 800a32 32 0 0 1-32-32v-256a32 32 0 0 1 32-32h256a32 32 0 0 1 32 32V768a32 32 0 0 1-32 32H128z m0 64h256A96 96 0 0 0 480 768v-256A96 96 0 0 0 384 416H128A96 96 0 0 0 32 512V768A96 96 0 0 0 128 864z m640-64a160 160 0 1 1 0-320 160 160 0 0 1 0 320z m0 64a224 224 0 1 0 0-448 224 224 0 0 0 0 448z m-640-576a32 32 0 0 1-32-32v-256a32 32 0 0 1 32-32h256a32 32 0 0 1 32 32v256a32 32 0 0 1-32 32H128z m0 64h256A96 96 0 0 0 480 256v-256A96 96 0 0 0 384-96H128A96 96 0 0 0 32 0v256A96 96 0 0 0 128 352z m512-64a32 32 0 0 1-32-32v-256a32 32 0 0 1 32-32h256a32 32 0 0 1 32 32v256a32 32 0 0 1-32 32h-256z m0 64h256a96 96 0 0 0 96-96v-256a96 96 0 0 0-96-96h-256A96 96 0 0 0 544 0v256A96 96 0 0 0 640 352z"  horiz-adv-x="1024" />

    
    <glyph glyph-name="fasongwenjian-xuanzhong" unicode="&#58956;" d="M1024 576H0V832a64 64 0 0 0 64 64h384a64 64 0 0 0 64-64v-96h384a128 128 0 0 0 128-128V576z m0-64v-512a128 128 0 0 0-128-128H128a128 128 0 0 0-128 128V512h1024z"  horiz-adv-x="1024" />

    
    <glyph glyph-name="jieshuzixun-xuanzhong" unicode="&#58957;" d="M512 896a512 512 0 1 0 0-1024A512 512 0 0 0 512 896zM350.435556 636.074667C257.251556 581.404444 199.111111 483.328 199.111111 375.466667c0-168.277333 140.288-304.355556 312.888889-304.355556s312.888889 136.078222 312.888889 304.355556c0 106.780444-57.002667 203.946667-148.593778 259.015111a28.444444 28.444444 0 1 1-29.297778-48.753778c74.752-44.942222 121.002667-123.790222 121.002667-210.261333 0-136.533333-114.403556-247.466667-256-247.466667s-256 110.933333-256 247.466667c0 87.324444 47.217778 166.912 123.221333 211.569777a28.444444 28.444444 0 0 1-28.842666 49.038223z m127.431111 46.193777v-255.829333c0-11.719111 3.299556-21.674667 9.955555-29.980444a29.752889 29.752889 0 0 1 23.893334-12.458667c9.671111 0 17.863111 4.152889 24.462222 12.458667a46.535111 46.535111 0 0 1 9.955555 29.980444V682.268444a47.843556 47.843556 0 0 1-9.955555 30.264889 29.923556 29.923556 0 0 1-24.462222 12.8c-9.329778 0-17.294222-4.266667-23.893334-12.8a47.900444 47.900444 0 0 1-9.955555-30.264889z"  horiz-adv-x="1024" />

    
    <glyph glyph-name="beizhuandan" unicode="&#58961;" d="M1024 896H0l1024-1024zM514.986667 724.778667a155.136 155.136 0 0 0 110.72 45.952h146.090666v21.418666c0 12.714667 8.448 18.517333 16.341334 18.517334 3.925333 0 7.893333-1.28 11.818666-3.797334l71.253334-46.165333c6.229333-4.096 9.813333-9.984 9.728-16.213333-0.042667-6.272-3.712-12.117333-10.026667-16.042667L800 684.373333a21.888 21.888 0 0 0-11.562667-3.584c-8.021333 0-16.64 5.888-16.64 18.730667v21.248h-146.090666a106.026667 106.026667 0 0 1-105.514667-106.282667c0-9.728 1.28-19.328 3.84-28.629333a25.002667 25.002667 0 0 0-24.490667-31.573333 25.344 25.344 0 0 0-24.490666 18.389333 155.349333 155.349333 0 0 0 39.978666 152.106667z m335.36-254.890667a155.136 155.136 0 0 0-110.72-45.952h-146.090667v-21.418667c0-12.714667-8.448-18.517333-16.341333-18.517333a21.802667 21.802667 0 0 0-11.818667 3.797333l-71.253333 46.165334c-6.229333 4.096-9.813333 9.984-9.728 16.213333 0.042667 6.272 3.712 12.117333 10.026666 16.042667L565.333333 510.293333a21.888 21.888 0 0 0 11.562667 3.584c8.021333 0 16.64-5.888 16.64-18.730666v-21.248h146.090667a106.026667 106.026667 0 0 1 105.514666 106.282666c0 9.728-1.28 19.328-3.84 28.629334a25.002667 25.002667 0 0 0 24.490667 31.573333c11.392 0 21.504-7.552 24.490667-18.389333 3.754667-13.653333 5.674667-27.733333 5.674666-41.813334 0-41.642667-16.256-80.810667-45.653333-110.293333z"  horiz-adv-x="1024" />

    
    <glyph glyph-name="yizhuandan" unicode="&#58964;" d="M506.002286-120.905143c-143.067429 3.949714-262.144 53.76-357.156572 149.577143C53.540571 124.123429 3.949714 243.712 0 387.510857 3.949714 531.309714 53.540571 650.971429 148.845714 746.422857 243.931429 842.24 362.934857 891.977143 506.002286 896c143.067429-3.949714 262.144-53.833143 357.156571-149.577143 95.305143-95.451429 144.896-215.04 148.845714-358.912-3.949714-143.798857-53.540571-263.387429-148.845714-358.838857-95.085714-95.817143-214.089143-145.627429-357.156571-149.577143zM439.808 158.72a47.104 47.104 0 0 0-34.669714 14.336L275.017143 303.835429a49.517714 49.517714 0 0 0-14.262857 34.816 46.811429 46.811429 0 0 0 14.701714 34.011428 46.811429 46.811429 0 0 0 34.304 14.848c12.726857 0 24.137143-4.827429 34.230857-14.409143L431.542857 285.549714l246.491429 237.348572a52.809143 52.809143 0 0 0 31.232 21.796571 47.542857 47.542857 0 0 0 36.425143-7.387428 47.542857 47.542857 0 0 0 22.162285-29.988572c2.56-12.580571 0.146286-24.868571-7.387428-37.083428l-280.356572-288.914286a46.811429 46.811429 0 0 0-35.547428-22.601143h-4.754286z"  horiz-adv-x="1024" />

    
    <glyph glyph-name="zhuandan-xuanzhong" unicode="&#58958;" d="M1120 64a160 160 0 0 0-160-160H192A160 160 0 0 0 32 64V704A160 160 0 0 0 192 864h768A160 160 0 0 0 1120 704v-640z m-295.296 358.336H596.608c-23.552 0-42.688-16.384-42.688-36.608 0-20.16 19.136-36.544 42.688-36.544h226.88L747.52 273.216a32 32 0 0 1 45.248-45.248l129.536 129.472a34.752 34.752 0 0 1 15.616 28.608 31.872 31.872 0 0 1-9.344 22.912l-135.808 135.744a32 32 0 0 1-45.248-45.248L824.704 422.4zM260.48 566.848h325.888a36.544 36.544 0 1 1 0 73.152H260.544a36.544 36.544 0 0 1 0-73.152z m0-438.848h325.888a36.544 36.544 0 0 1 0 73.152H260.544a36.544 36.544 0 1 1 0-73.152z m0 219.456h183.936a36.544 36.544 0 0 1 0 73.088H260.544a36.544 36.544 0 1 1 0-73.088z"  horiz-adv-x="1152" />

    
    <glyph glyph-name="zhuandan1" unicode="&#58959;" d="M260.544 566.848a36.544 36.544 0 1 0 0 73.152h325.888a36.544 36.544 0 0 0 0-73.152H260.544z m0-438.848a36.544 36.544 0 0 0 0 73.152h325.888a36.544 36.544 0 1 0 0-73.152H260.544z m0 219.456a36.544 36.544 0 0 0 0 73.088h183.936a36.544 36.544 0 1 0 0-73.088H260.544z m564.16 74.88L747.52 499.456a32 32 0 0 0 45.248 45.248l135.808-135.68a31.872 31.872 0 0 0 9.344-23.296 34.752 34.752 0 0 0-15.616-28.288l-129.536-129.472a32 32 0 1 0-45.248 45.248l75.968 75.968H596.608c-23.552 0-42.688 16.384-42.688 36.544 0 20.224 19.136 36.608 42.688 36.608h228.096zM1056 704A96 96 0 0 1 960 800H192A96 96 0 0 1 96 704v-640A96 96 0 0 1 192-32h768a96 96 0 0 1 96 96V704z m64-640a160 160 0 0 0-160-160H192A160 160 0 0 0 32 64V704A160 160 0 0 0 192 864h768A160 160 0 0 0 1120 704v-640z"  horiz-adv-x="1152" />

    
    <glyph glyph-name="kuaijiehuifu-xuanzhong" unicode="&#58960;" d="M512 896c282.624 0 511.872-228.992 511.872-511.488 0-279.68-224.896-506.752-503.808-511.104l-366.784-0.448a9318.08 9318.08 0 0 1-59.52-0.96h-0.512a25.6 25.6 0 0 0-21.888 38.976c11.008 18.048 17.92 28.672 20.48 31.872l50.688 88A509.44 509.44 0 0 0 0 384.448C0 667.008 229.248 896 512 896z m199.872-371.776H312a40 40 0 0 1 0-80.128h399.872a40 40 0 0 1 0 80.128z m2.048-200.32H310.016a40 40 0 0 1 0-80.128h403.84a40 40 0 0 1 0 80.128z"  horiz-adv-x="1024" />

    
    <glyph glyph-name="wentifenlei-xuanzhong" unicode="&#58962;" d="M128 864h256A96 96 0 0 0 480 768v-256A96 96 0 0 0 384 416H128A96 96 0 0 0 32 512V768A96 96 0 0 0 128 864z m640 0a224 224 0 1 0 0-448 224 224 0 0 0 0 448z m-640-512h256A96 96 0 0 0 480 256v-256A96 96 0 0 0 384-96H128A96 96 0 0 0 32 0v256A96 96 0 0 0 128 352z m512 0h256a96 96 0 0 0 96-96v-256a96 96 0 0 0-96-96h-256A96 96 0 0 0 544 0v256A96 96 0 0 0 640 352z"  horiz-adv-x="1024" />

    
    <glyph glyph-name="gerenzhanghao" unicode="&#58963;" d="M441.344 313.792a384.576 384.576 0 0 1-277.76-213.12A447.104 447.104 0 0 1 510.464-64a447.104 447.104 0 0 1 347.008 164.608 384.64 384.64 0 0 1-275.84 212.8 192.064 192.064 0 1 1-140.352 0.384zM512-128A512 512 0 1 0 512 896a512 512 0 0 0 0-1024z"  horiz-adv-x="1024" />

    


  </font>
</defs>
</svg>
