<?xml version="1.0" standalone="no"?><!DOCTYPE svg PUBLIC "-//W3C//DTD SVG 1.1//EN" "http://www.w3.org/Graphics/SVG/1.1/DTD/svg11.dtd"><svg t="1568860548774" class="icon" viewBox="0 0 1024 1024" version="1.1" xmlns="http://www.w3.org/2000/svg" p-id="2746" xmlns:xlink="http://www.w3.org/1999/xlink" width="200" height="200"><defs><style type="text/css"></style></defs><path d="M995.620571 753.883429h-70.509714a10.24 10.24 0 0 0-10.093714 10.24v167.716571H90.477714V92.16h824.685715v167.716571c0 5.558857 4.608 10.24 10.093714 10.24h70.436571a10.24 10.24 0 0 0 10.093715-10.24V40.96c0-22.674286-17.92-40.96-40.228572-40.96H40.228571C17.92 0 0 18.285714 0 40.96v942.08c0 22.674286 17.92 40.96 40.228571 40.96H965.485714c22.235429 0 40.228571-18.285714 40.228572-40.96v-218.916571a10.24 10.24 0 0 0-10.093715-10.24z m17.92-289.865143H602.331429V362.642286c0-8.923429-10.24-13.970286-16.969143-8.411429l-185.782857 149.357714a10.752 10.752 0 0 0 0 16.822858l185.782857 149.357714c6.875429 5.558857 16.969143 0.512 16.969143-8.411429V559.981714h411.209142A10.605714 10.605714 0 0 0 1024 549.302857V474.697143a10.605714 10.605714 0 0 0-10.459429-10.678857z" fill="#333333" p-id="2747"></path></svg>